# xmcd CD database file
#
# Track frame offsets:
#	150
#	14052
#	27740
#	43470
#	56807
#	74497
#	90567
#	107785
#	126960
#	145002
#	158522
#	177880
#	198147
#	216825
#
# Disc length: 3080 seconds
#
# Revision: 2
# Processed by: cddbd v1.5.1PL2 Copyright (c) Steve Scherf et al.
# Submitted via: CDex 1.51
#
DISCID=d10c060e
DTITLE=舟木一夫 - ゴールデンベスト
DYEAR=1999
DGENRE=Pop
TTITLE0=高校三年生
TTITLE1=修学旅行
TTITLE2=学園広場
TTITLE3=仲間たち
TTITLE4=君たちがいて僕がいた
TTITLE5=花咲く乙女たち
TTITLE6=北国の街
TTITLE7=高原のお嬢さん
TTITLE8=哀愁の夜
TTITLE9=銭形平次
TTITLE10=絶唱
TTITLE11=その人は昔
TTITLE12=一心太助江戸っ子祭り
TTITLE13=夏子の季節
EXTD=YEAR: 1999
EXTT0=
EXTT1=
EXTT2=
EXTT3=
EXTT4=
EXTT5=
EXTT6=
EXTT7=
EXTT8=
EXTT9=
EXTT10=
EXTT11=
EXTT12=
EXTT13=
PLAYORDER=
